grf.mot
version=1
nRows=14
nColumns=19
inDegrees=yes
endheader
time	ground_force_vx	ground_force_vy	ground_force_vz	ground_force_px	ground_force_py	ground_force_pz	1_ground_force_vx	1_ground_force_vy	1_ground_force_vz	1_ground_force_px	1_ground_force_py	1_ground_force_pz	ground_torque_x	ground_torque_y	ground_torque_z	1_ground_torque_x	1_ground_torque_y	1_ground_torque_z	
3.71654000000000	172.93500000000000	1069.35999999999990	-53.89700000000000	-0.41428200000000	-0.03624510000000	0.08598900000000	5.83095000000000	166.38200000000001	-18.52840000000000	0.18846300000000	0.01648830000000	-0.08719260000000	0.00000000000000	-6.11109000000000	0.00000000000000	0.00000000000000	-2.10075000000000	0.00000000000000	
3.71820000000000	174.38999999999999	1064.89000000000010	-52.80940000000000	-0.41913500000000	-0.03666970000000	0.08606240000000	4.93080000000000	175.77500000000001	-18.71840000000000	0.19097100000000	0.01670780000000	-0.08897430000000	0.00000000000000	-6.17345000000000	0.00000000000000	0.00000000000000	-2.09834000000000	0.00000000000000	
3.71987000000000	175.76300000000001	1059.96000000000000	-51.69370000000000	-0.42387500000000	-0.03708440000000	0.08612910000000	3.95353000000000	185.38499999999999	-18.87800000000000	0.19332900000000	0.01691410000000	-0.09071390000000	0.00000000000000	-6.23106000000000	0.00000000000000	0.00000000000000	-2.09049000000000	0.00000000000000	
3.72154000000000	177.05000000000001	1054.55999999999990	-50.55130000000000	-0.42848500000000	-0.03748770000000	0.08618800000000	2.89835000000000	195.20800000000000	-19.00630000000000	0.19553400000000	0.01710700000000	-0.09240940000000	0.00000000000000	-6.28372000000000	0.00000000000000	0.00000000000000	-2.07706000000000	0.00000000000000	
3.72320000000000	178.24700000000001	1048.70000000000000	-49.38360000000000	-0.43294900000000	-0.03787830000000	0.08623770000000	1.76461000000000	205.23699999999999	-19.10230000000000	0.19758400000000	0.01728630000000	-0.09405900000000	0.00000000000000	-6.33123000000000	0.00000000000000	0.00000000000000	-2.05788000000000	0.00000000000000	
3.72487000000000	179.35100000000000	1042.36999999999990	-48.19180000000000	-0.43725100000000	-0.03825470000000	0.08627700000000	0.55183800000000	215.46899999999999	-19.16530000000000	0.19947700000000	0.01745190000000	-0.09566110000000	0.00000000000000	-6.37342000000000	0.00000000000000	0.00000000000000	-2.03285000000000	0.00000000000000	
3.72653000000000	180.35900000000001	1035.56999999999990	-46.97740000000000	-0.44137500000000	-0.03861540000000	0.08630450000000	-0.74025500000000	225.89500000000001	-19.19440000000000	0.20121100000000	0.01760370000000	-0.09721410000000	0.00000000000000	-6.41011000000000	0.00000000000000	0.00000000000000	-2.00183000000000	0.00000000000000	
3.72820000000000	181.26599999999999	1028.31999999999990	-45.74190000000000	-0.44530300000000	-0.03895910000000	0.08631900000000	-2.11179000000000	236.51100000000000	-19.18890000000000	0.20278600000000	0.01774150000000	-0.09871650000000	0.00000000000000	-6.44112000000000	0.00000000000000	0.00000000000000	-1.96473000000000	0.00000000000000	
3.72987000000000	182.06999999999999	1020.60000000000000	-44.48670000000000	-0.44901900000000	-0.03928430000000	0.08631920000000	-3.56271000000000	247.31000000000000	-19.14810000000000	0.20420000000000	0.01786520000000	-0.10016700000000	0.00000000000000	-6.46630000000000	0.00000000000000	0.00000000000000	-1.92144000000000	0.00000000000000	
3.73154000000000	182.76700000000000	1012.42999999999990	-43.21350000000000	-0.45250800000000	-0.03958950000000	0.08630360000000	-5.09276000000000	258.28399999999999	-19.07150000000000	0.20545400000000	0.01797490000000	-0.10156500000000	0.00000000000000	-6.48550000000000	0.00000000000000	0.00000000000000	-1.87187000000000	0.00000000000000	
3.73320000000000	183.35499999999999	1003.80000000000000	-41.92380000000000	-0.45575400000000	-0.03987350000000	0.08627100000000	-6.70152000000000	269.42700000000002	-18.95860000000000	0.20654800000000	0.01807060000000	-0.10290800000000	0.00000000000000	-6.49856000000000	0.00000000000000	0.00000000000000	-1.81597000000000	0.00000000000000	
3.73487000000000	183.83000000000001	994.73199999999997	-40.61910000000000	-0.45874000000000	-0.04013480000000	0.08621990000000	-8.38837000000000	280.73000000000002	-18.80890000000000	0.20748100000000	0.01815230000000	-0.10419600000000	0.00000000000000	-6.50537000000000	0.00000000000000	0.00000000000000	-1.75366000000000	0.00000000000000	
3.73654000000000	184.19100000000000	985.22000000000003	-39.30130000000000	-0.46145200000000	-0.04037200000000	0.08614910000000	-10.15250000000000	292.18599999999998	-18.62200000000000	0.20825500000000	0.01822000000000	-0.10542900000000	0.00000000000000	-6.50580000000000	0.00000000000000	0.00000000000000	-1.68491000000000	0.00000000000000	
3.73820000000000	184.43299999999999	975.27400000000000	-37.97180000000000	-0.46387500000000	-0.04058400000000	0.08605720000000	-11.99290000000000	303.78699999999998	-18.39760000000000	0.20887000000000	0.01827380000000	-0.10660500000000	0.00000000000000	-6.49973000000000	0.00000000000000	0.00000000000000	-1.60968000000000	0.00000000000000	
